<svg width="590" height="326" viewBox="0 0 590 326" fill="none" xmlns="http://www.w3.org/2000/svg">
<path d="M0 24.9808C0 11.1843 11.181 0 24.9735 0H368.36C382.152 0 393.333 11.1843 393.333 24.9808V78.6897C393.333 92.4862 382.152 103.671 368.36 103.671H24.9735C11.181 103.671 0 92.4862 0 78.6897V24.9808Z" fill="#1a1464"/>
<path d="M71.7989 136.146C71.7989 122.349 82.98 111.165 96.7725 111.165H440.159C453.951 111.165 465.132 122.349 465.132 136.146V189.854C465.132 203.651 453.951 214.835 440.159 214.835H96.7725C82.98 214.835 71.7989 203.651 71.7989 189.854V136.146Z" fill="#1a1464"/>
<path d="M196.667 247.31C196.667 233.514 207.848 222.329 221.64 222.329H565.026C578.819 222.329 590 233.514 590 247.31V301.019C590 314.816 578.819 326 565.026 326H221.64C207.848 326 196.667 314.816 196.667 301.019V247.31Z" fill="#1a1464"/>
</svg>
